                                                                        S      1
,,27HBlimpEnclosureAttachment v2,27HBlimpEnclosureAttachment v2,7HunknowG      1
n,7Hunknown,32,38,7,99,15,,1.,2,2HMM,1,0.08,15H20190501.224638,0.01,    G      2
10000.,8Hjakers96,7Hunknown,11,0,15H20190426.024111;                    G      3
     408       1                                                00000001D      1
     408       0               1       0                               0D      2
     308       2                                                00010200D      3
     308       0               1       0                               0D      4
     186       3                                                00010000D      5
     186            -265       1       0                               0D      6
     514       4                                                00010000D      7
     514                       2       1                               0D      8
     510       6                                                00010000D      9
     510            -265       1       1                               0D     10
     510       7                                                00010000D     11
     510            -265       1       1                               0D     12
     510       8                                                00010000D     13
     510            -265       1       1                               0D     14
     510       9                                                00010000D     15
     510            -265       1       1                               0D     16
     510      10                                                00010000D     17
     510            -265       1       1                               0D     18
     510      11                                                00010000D     19
     510            -265       1       1                               0D     20
     510      12                                                00010000D     21
     510            -265       1       1                               0D     22
     510      13                                                00010000D     23
     510            -265       1       1                               0D     24
     510      14                                                00010000D     25
     510            -265       1       1                               0D     26
     510      15                                                00010000D     27
     510            -265       1       1                               0D     28
     510      16                                                00010000D     29
     510            -265       1       1                               0D     30
     510      17                                                00010000D     31
     510            -265       1       1                               0D     32
     510      18                                                00010000D     33
     510            -265       1       1                               0D     34
     510      19                                                00010000D     35
     510            -265       1       1                               0D     36
     510      20                                                00010000D     37
     510            -265       1       1                               0D     38
     510      21                                                00010000D     39
     510            -265       1       1                               0D     40
     510      22                                                00010000D     41
     510            -265       1       1                               0D     42
     510      23                                                00010000D     43
     510            -265       1       1                               0D     44
     510      24                                                00010000D     45
     510            -265       1       1                               0D     46
     510      25                                                00010000D     47
     510            -265       1       1                               0D     48
     510      26                                                00010000D     49
     510            -265       1       1                               0D     50
     510      27                                                00010000D     51
     510            -265       1       1                               0D     52
     508      28                                                00010000D     53
     508                       1       1                               0D     54
     508      29                                                00010000D     55
     508                       1       1                               0D     56
     508      30                                                00010000D     57
     508                       1       1                               0D     58
     508      31                                                00010000D     59
     508                       1       1                               0D     60
     508      32                                                00010000D     61
     508                       1       1                               0D     62
     508      33                                                00010000D     63
     508                       1       1                               0D     64
     508      34                                                00010000D     65
     508                       1       1                               0D     66
     508      35                                                00010000D     67
     508                       1       1                               0D     68
     508      36                                                00010000D     69
     508                       1       1                               0D     70
     508      37                                                00010000D     71
     508                       1       1                               0D     72
     508      38                                                00010000D     73
     508                       1       1                               0D     74
     508      39                                                00010000D     75
     508                       1       1                               0D     76
     508      40                                                00010000D     77
     508                       1       1                               0D     78
     508      41                                                00010000D     79
     508                       1       1                               0D     80
     508      42                                                00010000D     81
     508                       1       1                               0D     82
     508      43                                                00010000D     83
     508                       1       1                               0D     84
     508      44                                                00010000D     85
     508                       2       1                               0D     86
     508      46                                                00010000D     87
     508                       2       1                               0D     88
     508      48                                                00010000D     89
     508                       1       1                               0D     90
     508      49                                                00010000D     91
     508                       1       1                               0D     92
     508      50                                                00010000D     93
     508                       1       1                               0D     94
     508      51                                                00010000D     95
     508                       2       1                               0D     96
     508      53                                                00010000D     97
     508                       1       1                               0D     98
     508      54                                                00010000D     99
     508                       2       1                               0D    100
     508      56                                                00010000D    101
     508                       1       1                               0D    102
     508      57                                                00010000D    103
     508                       1       1                               0D    104
     126      58                                                00010000D    105
     126       0               3       0                               0D    106
     126      61                                                00010000D    107
     126       0               2       0                               0D    108
     126      63                                                00010000D    109
     126       0               3       0                               0D    110
     126      66                                                00010000D    111
     126       0               2       0                               0D    112
     126      68                                                00010000D    113
     126       0               3       0                               0D    114
     126      71                                                00010000D    115
     126       0               2       0                               0D    116
     126      73                                                00010000D    117
     126       0               2       0                               0D    118
     126      75                                                00010000D    119
     126       0               2       0                               0D    120
     126      77                                                00010000D    121
     126       0               2       0                               0D    122
     126      79                                                00010000D    123
     126       0               2       0                               0D    124
     126      81                                                00010000D    125
     126       0               2       0                               0D    126
     126      83                                                00010000D    127
     126       0               2       0                               0D    128
     126      85                                                00010000D    129
     126       0               2       0                               0D    130
     126      87                                                00010000D    131
     126       0               2       0                               0D    132
     126      89                                                00010000D    133
     126       0               2       0                               0D    134
     126      91                                                00010000D    135
     126       0               2       0                               0D    136
     126      93                                                00010000D    137
     126       0               3       0                               0D    138
     126      96                                                00010000D    139
     126       0               2       0                               0D    140
     126      98                                                00010000D    141
     126       0               4       0                               0D    142
     126     102                                                00010000D    143
     126       0               3       0                               0D    144
     126     105                                                00010000D    145
     126       0               2       0                               0D    146
     126     107                                                00010000D    147
     126       0               2       0                               0D    148
     126     109                                                00010000D    149
     126       0               3       0                               0D    150
     126     112                                                00010000D    151
     126       0               2       0                               0D    152
     126     114                                                00010000D    153
     126       0               3       0                               0D    154
     126     117                                                00010000D    155
     126       0               6       0                               0D    156
     126     123                                                00010000D    157
     126       0               2       0                               0D    158
     126     125                                                00010000D    159
     126       0               2       0                               0D    160
     126     127                                                00010000D    161
     126       0               2       0                               0D    162
     126     129                                                00010000D    163
     126       0               6       0                               0D    164
     126     135                                                00010000D    165
     126       0               2       0                               0D    166
     126     137                                                00010000D    167
     126       0               2       0                               0D    168
     126     139                                                00010000D    169
     126       0               5       0                               0D    170
     126     144                                                00010000D    171
     126       0               2       0                               0D    172
     126     146                                                00010000D    173
     126       0               5       0                               0D    174
     126     151                                                00010000D    175
     126       0               2       0                               0D    176
     126     153                                                00010000D    177
     126       0               3       0                               0D    178
     126     156                                                00010000D    179
     126       0               2       0                               0D    180
     126     158                                                00010000D    181
     126       0               3       0                               0D    182
     126     161                                                00010000D    183
     126       0               3       0                               0D    184
     126     164                                                00010000D    185
     126       0               4       0                               0D    186
     126     168                                                00010000D    187
     126       0               4       0                               0D    188
     126     172                                                00010000D    189
     126       0               3       0                               0D    190
     126     175                                                00010000D    191
     126       0               5       0                               0D    192
     126     180                                                00010000D    193
     126       0               2       0                               0D    194
     126     182                                                00010000D    195
     126       0               6       0                               0D    196
     126     188                                                00010000D    197
     126       0               2       0                               0D    198
     126     190                                                00010000D    199
     126       0               3       0                               0D    200
     126     193                                                00010000D    201
     126       0               4       0                               0D    202
     126     197                                                00010000D    203
     126       0               3       0                               0D    204
     126     200                                                00010000D    205
     126       0               3       0                               0D    206
     126     203                                                00010000D    207
     126       0               3       0                               0D    208
     126     206                                                00010000D    209
     126       0               4       0                               0D    210
     126     210                                                00010000D    211
     126       0               3       0                               0D    212
     128     213                                                00010000D    213
     128       0    -265       5       0                               0D    214
     128     218                                                00010000D    215
     128       0    -265       4       0                               0D    216
     128     222                                                00010000D    217
     128       0    -265       4       0                               0D    218
     128     226                                                00010000D    219
     128       0    -265       4       0                               0D    220
     128     230                                                00010000D    221
     128       0    -265       4       0                               0D    222
     128     234                                                00010000D    223
     128       0    -265       4       0                               0D    224
     128     238                                                00010000D    225
     128       0    -265       4       0                               0D    226
     128     242                                                00010000D    227
     128       0    -265       4       0                               0D    228
     128     246                                                00010000D    229
     128       0    -265      11       0                               0D    230
     128     257                                                00010000D    231
     128       0    -265       5       0                               0D    232
     128     262                                                00010000D    233
     128       0    -265       8       0                               0D    234
     128     270                                                00010000D    235
     128       0    -265       5       0                               0D    236
     128     275                                                00010000D    237
     128       0    -265       5       0                               0D    238
     128     280                                                00010000D    239
     128       0    -265       5       0                               0D    240
     128     285                                                00010000D    241
     128       0    -265       7       0                               0D    242
     128     292                                                00010000D    243
     128       0    -265       5       0                               0D    244
     128     297                                                00010000D    245
     128       0    -265       8       0                               0D    246
     128     305                                                00010000D    247
     128       0    -265       6       0                               0D    248
     128     311                                                00010000D    249
     128       0    -265       5       0                               0D    250
     128     316                                                00010000D    251
     128       0    -265       5       0                               0D    252
     128     321                                                00010000D    253
     128       0    -265       8       0                               0D    254
     128     329                                                00010000D    255
     128       0    -265       5       0                               0D    256
     502     334                                                00010000D    257
     502                      19       1                               0D    258
     504     353                                                00010001D    259
     504                      16       1                               0D    260
     406     369                                                00000000D    261
     406                       1      15                               0D    262
     406     370                                                00000000D    263
     406                       1      15                               0D    264
     314     371                                                00000200D    265
     314                       2       0                               0D    266
408,3,0.,0.,0.,1.,0,1,263;                                             1P      1
308,0,10HComponent1,1,5;                                               3P      2
186,7,1,0,0,1,261;                                                     5P      3
514,22,9,1,11,1,13,1,15,1,17,1,19,1,21,1,23,1,25,1,27,1,29,1,31,       7P      4
1,33,1,35,1,37,1,39,1,41,1,43,1,45,1,47,1,49,1,51,1;                   7P      5
510,213,1,1,53;                                                        9P      6
510,215,1,1,55;                                                       11P      7
510,217,1,1,57;                                                       13P      8
510,219,1,1,59;                                                       15P      9
510,221,4,1,61,63,65,67;                                              17P     10
510,223,1,1,69;                                                       19P     11
510,225,1,1,71;                                                       21P     12
510,227,2,1,73,75;                                                    23P     13
510,229,1,1,77;                                                       25P     14
510,231,1,1,79;                                                       27P     15
510,233,1,1,81;                                                       29P     16
510,235,1,1,83;                                                       31P     17
510,237,1,1,85;                                                       33P     18
510,239,1,1,87;                                                       35P     19
510,241,1,1,89;                                                       37P     20
510,243,1,1,91;                                                       39P     21
510,245,1,1,93;                                                       41P     22
510,247,1,1,95;                                                       43P     23
510,249,1,1,97;                                                       45P     24
510,251,1,1,99;                                                       47P     25
510,253,1,1,101;                                                      49P     26
510,255,1,1,103;                                                      51P     27
508,4,0,259,1,1,0,0,259,2,0,0,0,259,3,1,0,0,259,4,0,0;                53P     28
508,4,0,259,2,1,0,0,259,5,0,0,0,259,6,1,0,0,259,7,0,0;                55P     29
508,4,0,259,8,0,0,0,259,9,0,0,0,259,10,0,0,0,259,11,0,0;              57P     30
508,4,0,259,9,1,0,0,259,12,1,0,0,259,13,1,0,0,259,14,0,0;             59P     31
508,4,0,259,8,1,0,0,259,15,0,0,0,259,16,1,0,0,259,12,0,0;             61P     32
508,4,0,259,17,0,0,0,259,18,0,0,0,259,19,0,0,0,259,20,0,0;            63P     33
508,4,0,259,21,1,0,0,259,22,1,0,0,259,23,1,0,0,259,24,1,0;            65P     34
508,4,0,259,25,1,0,0,259,26,0,0,0,259,5,1,0,0,259,1,0,0;              67P     35
508,4,0,259,16,0,0,0,259,27,0,0,0,259,28,0,0,0,259,13,0,0;            69P     36
508,4,0,259,11,1,0,0,259,29,0,0,0,259,27,1,0,0,259,15,1,0;            71P     37
508,4,0,259,10,1,0,0,259,14,1,0,0,259,28,1,0,0,259,29,1,0;            73P     38
508,4,0,259,30,1,0,0,259,31,1,0,0,259,3,0,0,0,259,7,1,0;              75P     39
508,4,0,259,26,1,0,0,259,32,1,0,0,259,30,0,0,0,259,6,0,0;             77P     40
508,4,0,259,4,1,0,0,259,31,0,0,0,259,32,0,0,0,259,25,0,0;             79P     41
508,4,0,259,33,1,0,0,259,34,1,0,0,259,35,1,0,0,259,36,1,0;            81P     42
508,4,0,259,34,0,0,0,259,37,1,0,0,259,38,1,0,0,259,39,1,0;            83P     43
508,5,0,259,33,0,0,0,259,40,0,0,0,259,23,0,0,0,259,41,1,0,0,259,      85P     44
37,0,0;                                                               85P     45
508,5,0,259,35,0,0,0,259,39,0,0,0,259,42,0,0,0,259,21,0,0,0,259,      87P     46
43,1,0;                                                               87P     47
508,4,0,259,22,0,0,0,259,42,1,0,0,259,38,0,0,0,259,41,0,0;            89P     48
508,4,0,259,36,0,0,0,259,43,0,0,0,259,24,0,0,0,259,40,1,0;            91P     49
508,4,0,259,44,1,0,0,259,45,1,0,0,259,46,1,0,0,259,47,1,0;            93P     50
508,5,0,259,44,0,0,0,259,48,0,0,0,259,17,1,0,0,259,49,1,0,0,259,      95P     51
50,0,0;                                                               95P     52
508,4,0,259,47,0,0,0,259,51,0,0,0,259,18,1,0,0,259,48,1,0;            97P     53
508,5,0,259,46,0,0,0,259,52,0,0,0,259,53,0,0,0,259,19,1,0,0,259,      99P     54
51,1,0;                                                               99P     55
508,4,0,259,20,1,0,0,259,53,1,0,0,259,54,0,0,0,259,49,0,0;           101P     56
508,4,0,259,45,0,0,0,259,50,1,0,0,259,54,1,0,0,259,52,1,0;           103P     57
126,1,1,0,0,1,0,0.,0.,8.60949192431123,8.60949192431123,1.,1.,       105P     58
-5.,-69.6974596215561,50.,-5.,16.3974596215561,50.,0.,               105P     59
8.60949192431123,0.,0.,0.;                                           105P     60
126,1,1,0,0,1,0,-0.4,-0.4,0.,0.,1.,1.,-5.,16.3974596215561,54.,      107P     61
-5.,16.3974596215561,50.,-0.4,0.,0.,0.,0.;                           107P     62
126,1,1,0,0,1,0,-8.60949192431123,-8.60949192431123,0.,0.,1.,1.,     109P     63
-5.,16.3974596215561,54.,-5.,-69.6974596215561,54.,                  109P     64
-8.60949192431123,0.,0.,0.,0.;                                       109P     65
126,1,1,0,0,1,0,0.,0.,0.4,0.4,1.,1.,-5.,-69.6974596215561,50.,       111P     66
-5.,-69.6974596215561,54.,0.,0.4,0.,0.,0.;                           111P     67
126,1,1,0,0,1,0,-10.95,-10.95,-0.449999999999999,                    113P     68
-0.449999999999999,1.,1.,100.,16.3974596215561,50.,-5.,              113P     69
16.3974596215561,50.,-10.95,-0.449999999999999,0.,0.,0.;             113P     70
126,1,1,0,0,1,0,0.,0.,0.4,0.4,1.,1.,100.,16.3974596215561,50.,       115P     71
100.,16.3974596215561,54.,0.,0.4,0.,0.,0.;                           115P     72
126,1,1,0,0,1,0,1.5,1.5,12.,12.,1.,1.,-5.,16.3974596215561,54.,      117P     73
100.,16.3974596215561,54.,1.5,12.,0.,0.,0.;                          117P     74
126,1,1,0,0,1,0,-9.,-9.,3.,3.,1.,1.,-23.5284877397515,-86.65,        119P     75
50.,-23.5284877397515,33.35,50.,-9.,3.,0.,0.,0.;                     119P     76
126,1,1,0,0,1,0,-0.4,-0.4,0.,0.,1.,1.,-23.5284877397515,-86.65,      121P     77
54.,-23.5284877397515,-86.65,50.,-0.4,0.,0.,0.,0.;                   121P     78
126,1,1,0,0,1,0,-3.,-3.,9.,9.,1.,1.,-23.5284877397515,33.35,54.,     123P     79
-23.5284877397515,-86.65,54.,-3.,9.,0.,0.,0.;                        123P     80
126,1,1,0,0,1,0,0.,0.,0.4,0.4,1.,1.,-23.5284877397515,33.35,50.,     125P     81
-23.5284877397515,33.35,54.,0.,0.4,0.,0.,0.;                         125P     82
126,1,1,0,0,1,0,1.,1.,18.5,18.5,1.,1.,-23.5284877397515,-86.65,      127P     83
50.,151.471512260248,-86.65,50.,1.,18.5,0.,0.,0.;                    127P     84
126,1,1,0,0,1,0,0.,0.,0.4,0.4,1.,1.,151.471512260248,-86.65,50.,     129P     85
151.471512260248,-86.65,54.,0.,0.4,0.,0.,0.;                         129P     86
126,1,1,0,0,1,0,1.,1.,18.5,18.5,1.,1.,-23.5284877397515,-86.65,      131P     87
54.,151.471512260248,-86.65,54.,1.,18.5,0.,0.,0.;                    131P     88
126,1,1,0,0,1,0,1.5,1.5,19.,19.,1.,1.,151.471512260248,33.35,        133P     89
50.,-23.5284877397515,33.35,50.,1.5,19.,0.,0.,0.;                    133P     90
126,1,1,0,0,1,0,-9.,-9.,3.,3.,1.,1.,151.471512260248,33.35,50.,      135P     91
151.471512260248,-86.65,50.,-9.,3.,0.,0.,0.;                         135P     92
126,1,1,0,0,1,0,0.,0.,0.15,0.15,1.,1.,-4.00000000000001,             137P     93
-78.4985117133101,50.,-4.00000000000001,-76.9985117133101,50.,       137P     94
0.,0.15,0.,0.,0.;                                                    137P     95
126,1,1,0,0,1,0,0.,0.,10.4,10.4,1.,1.,100.,-78.4985117133101,        139P     96
50.,-4.,-78.4985117133101,50.,0.,10.4,0.,0.,0.;                      139P     97
126,1,1,0,0,1,0,-0.0500000000000007,-0.0500000000000007,             141P     98
0.0999999999999996,0.0999999999999996,1.,1.,100.,                    141P     99
-76.9985117133101,50.,100.,-78.4985117133101,50.,                    141P    100
-0.0500000000000007,0.0999999999999996,0.,0.,0.;                     141P    101
126,1,1,0,0,1,0,-2.6,-2.6,7.8,7.8,1.,1.,-4.00000000000001,           143P    102
-76.9985117133101,50.,100.,-76.9985117133101,50.,-2.6,7.8,0.,0.,     143P    103
0.;                                                                  143P    104
126,1,1,0,0,1,0,0.,0.,0.15,0.15,1.,1.,-4.,25.1985117133101,50.,      145P    105
-4.,23.6985117133101,50.,0.,0.15,0.,0.,0.;                           145P    106
126,1,1,0,0,1,0,-7.8,-7.8,2.6,2.6,1.,1.,-4.,23.6985117133101,        147P    107
50.,100.,23.6985117133101,50.,-7.8,2.6,0.,0.,0.;                     147P    108
126,1,1,0,0,1,0,-0.0499999999999998,-0.0499999999999998,0.1,0.1,     149P    109
1.,1.,100.,23.6985117133101,50.,100.,25.1985117133101,50.,           149P    110
-0.0499999999999998,0.1,0.,0.,0.;                                    149P    111
126,1,1,0,0,1,0,0.,0.,10.4,10.4,1.,1.,100.,25.1985117133101,50.,     151P    112
-4.,25.1985117133101,50.,0.,10.4,0.,0.,0.;                           151P    113
126,1,1,0,0,1,0,-5.55,-5.55,4.95,4.95,1.,1.,-5.,                     153P    114
-69.6974596215561,50.,100.,-69.6974596215561,50.,-5.55,4.95,0.,      153P    115
0.,0.;                                                               153P    116
126,4,2,0,0,0,0,-3.14159265358979,-3.14159265358979,                 155P    117
-3.14159265358979,-1.5707963267949,-1.5707963267949,0.,0.,0.,1.,     155P    118
0.707106781186547,1.,0.707106781186547,1.,100.,16.3974596215561,     155P    119
50.,143.047459621556,16.3974596215561,50.,143.047459621556,          155P    120
-26.65,50.,143.047459621556,-69.6974596215561,50.,100.,              155P    121
-69.6974596215561,50.,-3.14159265358979,0.,0.,0.,0.;                 155P    122
126,1,1,0,0,1,0,-0.4,-0.4,0.,0.,1.,1.,151.471512260248,33.35,        157P    123
54.,151.471512260248,33.35,50.,-0.4,0.,0.,0.,0.;                     157P    124
126,1,1,0,0,1,0,-3.,-3.,9.,9.,1.,1.,151.471512260248,-86.65,54.,     159P    125
151.471512260248,33.35,54.,-3.,9.,0.,0.,0.;                          159P    126
126,1,1,0,0,1,0,1.5,1.5,19.,19.,1.,1.,151.471512260248,33.35,        161P    127
54.,-23.5284877397515,33.35,54.,1.5,19.,0.,0.,0.;                    161P    128
126,4,2,0,0,0,0,-3.14159265358979,-3.14159265358979,                 163P    129
-3.14159265358979,-1.5707963267949,-1.5707963267949,0.,0.,0.,1.,     163P    130
0.707106781186547,1.,0.707106781186547,1.,100.,16.3974596215561,     163P    131
54.,143.047459621556,16.3974596215561,54.,143.047459621556,          163P    132
-26.65,54.,143.047459621556,-69.6974596215561,54.,100.,              163P    133
-69.6974596215561,54.,-3.14159265358979,0.,0.,0.,0.;                 163P    134
126,1,1,0,0,1,0,0.,0.,10.5,10.5,1.,1.,100.,-69.6974596215561,        165P    135
54.,-5.,-69.6974596215561,54.,0.,10.5,0.,0.,0.;                      165P    136
126,1,1,0,0,1,0,0.,0.,0.4,0.4,1.,1.,100.,-69.6974596215561,50.,      167P    137
100.,-69.6974596215561,54.,0.,0.4,0.,0.,0.;                          167P    138
126,2,2,0,0,0,0,5.49778714378214,5.49778714378214,                   169P    139
5.49778714378214,7.06858347057703,7.06858347057703,                  169P    140
7.06858347057703,1.,0.707106781186546,1.,100.,25.1985117133101,      169P    141
48.,100.,25.1985117133101,45.,100.,22.1985117133101,45.,             169P    142
5.49778714378214,7.06858347057703,0.,0.,0.;                          169P    143
126,1,1,0,0,1,0,-7.8,-7.8,2.6,2.6,1.,1.,100.,22.1985117133101,       171P    144
45.,-4.,22.1985117133101,45.,-7.8,2.6,0.,0.,0.;                      171P    145
126,2,2,0,0,0,0,-0.785398163397448,-0.785398163397448,               173P    146
-0.785398163397448,0.785398163397448,0.785398163397448,              173P    147
0.785398163397448,1.,0.707106781186552,1.,-4.,22.1985117133101,      173P    148
45.,-4.,25.1985117133101,45.,-4.,25.1985117133101,48.,               173P    149
-0.785398163397448,0.785398163397448,0.,0.,0.;                       173P    150
126,1,1,0,0,1,0,-2.6,-2.6,7.8,7.8,1.,1.,-4.,25.1985117133101,        175P    151
48.,100.,25.1985117133101,48.,-2.6,7.8,0.,0.,0.;                     175P    152
126,1,1,0,0,1,0,0.2,0.2,0.231985117133101,0.231985117133101,1.,      177P    153
1.,100.,22.1985117133101,45.,100.,21.8786605419791,45.,0.2,          177P    154
0.231985117133101,0.,0.,0.;                                          177P    155
126,1,1,0,0,1,0,-2.6,-2.6,7.8,7.8,1.,1.,100.,21.8786605419791,       179P    156
45.,-4.,21.8786605419791,45.,-2.6,7.8,0.,0.,0.;                      179P    157
126,1,1,0,0,1,0,-0.331985117133101,-0.331985117133101,-0.3,-0.3,     181P    158
1.,1.,-4.,21.8786605419791,45.,-4.,22.1985117133101,45.,             181P    159
-0.331985117133101,-0.3,0.,0.,0.;                                    181P    160
126,1,1,0,0,1,0,0.,0.,0.199999999999999,0.199999999999999,1.,1.,     183P    161
100.,25.1985117133101,50.,100.,25.1985117133101,48.,0.,              183P    162
0.199999999999999,0.,0.,0.;                                          183P    163
126,1,1,0,0,1,0,0.030059685267138,0.030059685267138,                 185P    164
0.562148571505094,0.562148571505094,1.,1.,100.,23.6985117133101,     185P    165
50.,100.,21.8786605419791,45.,0.030059685267138,                     185P    166
0.562148571505094,0.,0.,0.;                                          185P    167
126,1,1,0,0,1,0,0.0129586781008543,0.0129586781008543,               187P    168
0.54504756433881,0.54504756433881,1.,1.,-4.00000000000001,           187P    169
23.6985117133101,50.,-4.00000000000001,21.8786605419791,45.,         187P    170
0.0129586781008543,0.54504756433881,0.,0.,0.;                        187P    171
126,1,1,0,0,1,0,0.,0.,0.199999999999999,0.199999999999999,1.,1.,     189P    172
-4.,25.1985117133101,50.,-4.,25.1985117133101,48.,0.,                189P    173
0.199999999999999,0.,0.,0.;                                          189P    174
126,2,2,0,0,0,0,5.49778714378214,5.49778714378214,                   191P    175
5.49778714378214,7.06858347057703,7.06858347057703,                  191P    176
7.06858347057703,1.,0.707106781186551,1.,-4.,-78.4985117133101,      191P    177
48.,-4.,-78.4985117133101,45.,-4.,-75.4985117133101,45.,             191P    178
5.49778714378214,7.06858347057703,0.,0.,0.;                          191P    179
126,1,1,0,0,1,0,-7.8,-7.8,2.6,2.6,1.,1.,-4.,-75.4985117133101,       193P    180
45.,100.,-75.4985117133101,45.,-7.8,2.6,0.,0.,0.;                    193P    181
126,2,2,0,0,0,0,-0.785398163397448,-0.785398163397448,               195P    182
-0.785398163397448,0.785398163397448,0.785398163397448,              195P    183
0.785398163397448,1.,0.707106781186559,1.,100.,                      195P    184
-75.4985117133101,45.,100.,-78.4985117133101,45.,100.,               195P    185
-78.4985117133101,48.,-0.785398163397448,0.785398163397448,0.,       195P    186
0.,0.;                                                               195P    187
126,1,1,0,0,1,0,-2.6,-2.6,7.8,7.8,1.,1.,100.,-78.4985117133101,      197P    188
48.,-4.,-78.4985117133101,48.,-2.6,7.8,0.,0.,0.;                     197P    189
126,1,1,0,0,1,0,0.,0.,0.199999999999999,0.199999999999999,1.,1.,     199P    190
-4.00000000000001,-78.4985117133101,50.,-4.00000000000001,           199P    191
-78.4985117133101,48.,0.,0.199999999999999,0.,0.,0.;                 199P    192
126,1,1,0,0,1,0,0.0300596852671379,0.0300596852671379,               201P    193
0.562148571505094,0.562148571505094,1.,1.,-4.00000000000001,         201P    194
-76.9985117133101,50.,-4.00000000000001,-75.1786605419791,45.,       201P    195
0.0300596852671379,0.562148571505094,0.,0.,0.;                       201P    196
126,1,1,0,0,1,0,0.3,0.3,0.331985117133101,0.331985117133101,1.,      203P    197
1.,-4.00000000000001,-75.4985117133101,45.,-4.00000000000001,        203P    198
-75.1786605419791,45.,0.3,0.331985117133101,0.,0.,0.;                203P    199
126,1,1,0,0,1,0,0.,0.,0.199999999999999,0.199999999999999,1.,1.,     205P    200
100.,-78.4985117133101,50.,100.,-78.4985117133101,48.,0.,            205P    201
0.199999999999999,0.,0.,0.;                                          205P    202
126,1,1,0,0,1,0,-0.231985117133101,-0.231985117133101,-0.2,-0.2,     207P    203
1.,1.,100.,-75.1786605419791,45.,100.,-75.4985117133101,45.,         207P    204
-0.231985117133101,-0.2,0.,0.,0.;                                    207P    205
126,1,1,0,0,1,0,0.0129586781008543,0.0129586781008543,               209P    206
0.54504756433881,0.54504756433881,1.,1.,100.,-76.9985117133101,      209P    207
50.,100.,-75.1786605419791,45.,0.0129586781008543,                   209P    208
0.54504756433881,0.,0.,0.;                                           209P    209
126,1,1,0,0,1,0,-2.6,-2.6,7.8,7.8,1.,1.,-4.00000000000001,           211P    210
-75.1786605419791,45.,100.,-75.1786605419791,45.,-2.6,7.8,0.,0.,     211P    211
0.;                                                                  211P    212
128,1,1,1,1,0,0,1,0,0,-0.401,-0.401,0.001,0.001,-0.001,-0.001,       213P    213
8.61049192431123,8.61049192431123,1.,1.,1.,1.,-5.,                   213P    214
-69.7074596215561,54.01,-5.,-69.7074596215561,49.99,-5.,             213P    215
16.4074596215561,54.01,-5.,16.4074596215561,49.99,-0.401,0.001,      213P    216
-0.001,8.61049192431123;                                             213P    217
128,1,1,1,1,0,0,1,0,0,1.499,1.499,12.001,12.001,-0.001,-0.001,       215P    218
0.401,0.401,1.,1.,1.,1.,-5.01,16.3974596215561,49.99,100.01,         215P    219
16.3974596215561,49.99,-5.01,16.3974596215561,54.01,100.01,          215P    220
16.3974596215561,54.01,1.499,12.001,-0.001,0.401;                    215P    221
128,1,1,1,1,0,0,1,0,0,-0.401,-0.401,0.001,0.001,-12.001,-12.001,     217P    222
0.001,0.001,1.,1.,1.,1.,-23.5284877397515,-86.66,49.99,              217P    223
-23.5284877397515,-86.66,54.01,-23.5284877397515,33.36,49.99,        217P    224
-23.5284877397515,33.36,54.01,-0.401,0.001,-12.001,0.001;            217P    225
128,1,1,1,1,0,0,1,0,0,0.999,0.999,18.501,18.501,-0.001,-0.001,       219P    226
0.401,0.401,1.,1.,1.,1.,-23.5384877397515,-86.65,49.99,              219P    227
151.481512260248,-86.65,49.99,-23.5384877397515,-86.65,54.01,        219P    228
151.481512260248,-86.65,54.01,0.999,18.501,-0.001,0.401;             219P    229
128,1,1,1,1,0,0,1,0,0,-8.501,-8.501,9.001,9.001,-6.001,-6.001,       221P    230
6.001,6.001,1.,1.,1.,1.,-23.5384877397515,33.36,50.,                 221P    231
151.481512260248,33.36,50.,-23.5384877397515,-86.66,50.,             221P    232
151.481512260248,-86.66,50.,-8.501,9.001,-6.001,6.001;               221P    233
128,1,1,1,1,0,0,1,0,0,-0.001,-0.001,0.401,0.401,-0.001,-0.001,       223P    234
12.001,12.001,1.,1.,1.,1.,151.471512260248,-86.66,54.01,             223P    235
151.471512260248,-86.66,49.99,151.471512260248,33.36,54.01,          223P    236
151.471512260248,33.36,49.99,-0.001,0.401,-0.001,12.001;             223P    237
128,1,1,1,1,0,0,1,0,0,1.499,1.499,19.001,19.001,-0.001,-0.001,       225P    238
0.401,0.401,1.,1.,1.,1.,151.481512260248,33.35,49.99,                225P    239
-23.5384877397516,33.35,49.99,151.481512260248,33.35,54.01,          225P    240
-23.5384877397516,33.35,54.01,1.499,19.001,-0.001,0.401;             225P    241
128,1,1,1,1,0,0,1,0,0,-8.501,-8.501,9.001,9.001,-6.001,-6.001,       227P    242
6.001,6.001,1.,1.,1.,1.,151.481512260248,33.36,54.,                  227P    243
-23.5384877397515,33.36,54.,151.481512260248,-86.66,54.,             227P    244
-23.5384877397515,-86.66,54.,-8.501,9.001,-6.001,6.001;              227P    245
128,1,4,1,2,0,0,0,0,0,0.,0.,0.092920698112392,0.092920698112392,     229P    246
0.,0.,0.,1.5707963267949,1.5707963267949,3.14159265358979,           229P    247
3.14159265358979,3.14159265358979,1.,1.,0.707106781186548,           229P    248
0.707106781186548,1.,1.,0.707106781186548,0.707106781186548,1.,      229P    249
1.,100.,-69.6974596215561,50.,100.,-69.6974596215561,54.,            229P    250
143.047459621556,-69.6974596215561,50.,143.047459621556,             229P    251
-69.6974596215561,54.,143.047459621556,-26.65,50.,                   229P    252
143.047459621556,-26.65,54.,143.047459621556,16.3974596215561,       229P    253
50.,143.047459621556,16.3974596215561,54.,100.,16.3974596215561,     229P    254
50.,100.,16.3974596215561,54.,0.,0.092920698112392,0.,               229P    255
3.14159265358979;                                                    229P    256
128,1,1,1,1,0,0,1,0,0,-0.001,-0.001,10.501,10.501,-0.001,-0.001,     231P    257
0.401,0.401,1.,1.,1.,1.,100.01,-69.6974596215561,49.99,              231P    258
-5.00999999999999,-69.6974596215561,49.99,100.01,                    231P    259
-69.6974596215561,54.01,-5.00999999999999,-69.6974596215561,         231P    260
54.01,-0.001,10.501,-0.001,0.401;                                    231P    261
128,1,2,1,2,0,0,0,0,0,-8.66666666666666,-8.66666666666666,26.,       233P    262
26.,-0.785398163397448,-0.785398163397448,-0.785398163397448,        233P    263
0.785398163397448,0.785398163397448,0.785398163397448,1.,1.,         233P    264
0.707106781186548,0.707106781186548,1.,1.,100.,22.1985117133101,     233P    265
45.,-4.,22.1985117133101,45.,100.,25.1985117133101,45.,-4.,          233P    266
25.1985117133101,45.,100.,25.1985117133101,48.,-4.,                  233P    267
25.1985117133101,48.,-8.66666666666666,26.,-0.785398163397448,       233P    268
0.785398163397448;                                                   233P    269
128,1,1,1,1,0,0,1,0,0,-5.201,-5.201,5.201,5.201,                     235P    270
-0.282985117133101,-0.282985117133101,-0.249,-0.249,1.,1.,1.,1.,     235P    271
100.01,21.8686605419791,45.,-4.01000000000001,21.8686605419791,      235P    272
45.,100.01,22.2085117133101,45.,-4.01,22.2085117133101,45.,          235P    273
-5.201,5.201,-0.282985117133101,-0.249;                              235P    274
128,1,1,1,1,0,0,1,0,0,-0.001,-0.001,0.332985117133101,               237P    275
0.332985117133101,-0.001,-0.001,0.501,0.501,1.,1.,1.,1.,100.,        237P    276
25.2085117133101,50.01,100.,21.8686605419791,50.01,100.,             237P    277
25.2085117133101,44.99,100.,21.8686605419791,44.99,-0.001,           237P    278
0.332985117133101,-0.001,0.501;                                      237P    279
128,1,1,1,1,0,0,1,0,0,-0.232985117133102,-0.232985117133102,         239P    280
0.101,0.101,-0.001,-0.001,0.501,0.501,1.,1.,1.,1.,-4.,               239P    281
21.8686605419791,50.01,-4.,25.2085117133101,50.01,-4.,               239P    282
21.8686605419791,44.99,-4.,25.2085117133101,44.99,                   239P    283
-0.232985117133102,0.101,-0.001,0.501;                               239P    284
128,1,1,1,1,0,0,1,0,0,-0.001,-0.001,10.401,10.401,                   241P    285
0.00781634903542316,0.00781634903542316,0.54190523527338,            241P    286
0.54190523527338,1.,1.,1.,1.,100.01,23.7019319147434,                241P    287
50.0093969262079,-4.01000000000002,23.7019319147434,                 241P    288
50.0093969262079,100.01,21.8752403405458,44.9906030737921,           241P    289
-4.01000000000002,21.8752403405458,44.9906030737921,-0.001,          241P    290
10.401,0.00781634903542316,0.54190523527338;                         241P    291
128,1,1,1,1,0,0,1,0,0,-0.001,-0.001,10.401,10.401,-0.001,-0.001,     243P    292
0.200999999999999,0.200999999999999,1.,1.,1.,1.,-4.01,               243P    293
25.1985117133101,50.01,100.01,25.1985117133101,50.01,-4.01,          243P    294
25.1985117133101,47.99,100.01,25.1985117133101,47.99,-0.001,         243P    295
10.401,-0.001,0.200999999999999;                                     243P    296
128,1,2,1,2,0,0,0,0,0,-8.66666666666666,-8.66666666666666,26.,       245P    297
26.,-0.785398163397448,-0.785398163397448,-0.785398163397448,        245P    298
0.785398163397448,0.785398163397448,0.785398163397448,1.,1.,         245P    299
0.707106781186548,0.707106781186548,1.,1.,-4.,-75.4985117133101,     245P    300
45.,100.,-75.4985117133101,45.,-4.,-78.4985117133101,45.,100.,       245P    301
-78.4985117133101,45.,-4.,-78.4985117133101,48.,100.,                245P    302
-78.4985117133101,48.,-8.66666666666666,26.,-0.785398163397448,      245P    303
0.785398163397448;                                                   245P    304
128,1,1,1,1,0,0,1,0,0,-0.00100000000000001,-0.00100000000000001,     247P    305
0.332985117133102,0.332985117133102,-0.001,-0.001,0.501,0.501,       247P    306
1.,1.,1.,1.,-4.00000000000001,-78.5085117133101,50.01,               247P    307
-4.00000000000001,-75.1686605419791,50.01,-4.00000000000001,         247P    308
-78.5085117133101,44.99,-4.00000000000001,-75.1686605419791,         247P    309
44.99,-0.00100000000000001,0.332985117133102,-0.001,0.501;           247P    310
128,1,1,1,1,0,0,1,0,0,-0.001,-0.001,10.401,10.401,-0.001,-0.001,     249P    311
0.200999999999999,0.200999999999999,1.,1.,1.,1.,100.01,              249P    312
-78.4985117133101,50.01,-4.01,-78.4985117133101,50.01,100.01,        249P    313
-78.4985117133101,47.99,-4.01,-78.4985117133101,47.99,-0.001,        249P    314
10.401,-0.001,0.200999999999999;                                     249P    315
128,1,1,1,1,0,0,1,0,0,-0.232985117133101,-0.232985117133101,         251P    316
0.101,0.101,-0.001,-0.001,0.501,0.501,1.,1.,1.,1.,100.,              251P    317
-75.1686605419791,50.01,100.,-78.5085117133101,50.01,100.,           251P    318
-75.1686605419791,44.99,100.,-78.5085117133101,44.99,                251P    319
-0.232985117133101,0.101,-0.001,0.501;                               251P    320
128,1,1,1,1,0,0,1,0,0,-0.00100000000000094,-0.00100000000000094,     253P    321
10.401,10.401,0.00781634903542316,0.00781634903542316,               253P    322
0.54190523527338,0.54190523527338,1.,1.,1.,1.,-4.01000000000002,     253P    323
-77.0019319147434,50.0093969262079,100.01,-77.0019319147434,         253P    324
50.0093969262079,-4.01000000000002,-75.1752403405459,                253P    325
44.9906030737921,100.01,-75.1752403405459,44.9906030737921,          253P    326
-0.00100000000000094,10.401,0.00781634903542316,                     253P    327
0.54190523527338;                                                    253P    328
128,1,1,1,1,0,0,1,0,0,-5.201,-5.201,5.201,5.201,0.249,0.249,         255P    329
0.282985117133102,0.282985117133102,1.,1.,1.,1.,100.01,              255P    330
-75.5085117133101,45.,-4.01000000000002,-75.5085117133101,45.,       255P    331
100.01,-75.1686605419791,45.,-4.01000000000002,                      255P    332
-75.1686605419791,45.,-5.201,5.201,0.249,0.282985117133102;          255P    333
502,36,-5.,-69.6974596215561,50.,-5.,16.3974596215561,50.,-5.,       257P    334
16.3974596215561,54.,-5.,-69.6974596215561,54.,100.,                 257P    335
16.3974596215561,50.,100.,16.3974596215561,54.,                      257P    336
-23.5284877397515,-86.65,50.,-23.5284877397515,33.35,50.,            257P    337
-23.5284877397515,-86.65,54.,-23.5284877397515,33.35,54.,            257P    338
151.471512260248,-86.65,50.,151.471512260248,-86.65,54.,             257P    339
151.471512260248,33.35,50.,-4.00000000000001,-78.4985117133101,      257P    340
50.,-4.00000000000001,-76.9985117133101,50.,100.,                    257P    341
-78.4985117133101,50.,100.,-76.9985117133101,50.,-4.,                257P    342
25.1985117133101,50.,-4.,23.6985117133101,50.,100.,                  257P    343
23.6985117133101,50.,100.,25.1985117133101,50.,100.,                 257P    344
-69.6974596215561,50.,151.471512260248,33.35,54.,100.,               257P    345
-69.6974596215561,54.,100.,25.1985117133101,48.,100.,                257P    346
22.1985117133101,45.,-4.,22.1985117133101,45.,-4.,                   257P    347
25.1985117133101,48.,100.,21.8786605419791,45.,-4.,                  257P    348
21.8786605419791,45.,-4.00000000000001,-78.4985117133101,48.,        257P    349
-4.00000000000001,-75.4985117133101,45.,100.,-75.4985117133101,      257P    350
45.,100.,-78.4985117133101,48.,-4.00000000000001,                    257P    351
-75.1786605419791,45.,100.,-75.1786605419791,45.;                    257P    352
504,54,105,257,1,257,2,107,257,3,257,2,109,257,3,257,4,111,257,      259P    353
1,257,4,113,257,5,257,2,115,257,5,257,6,117,257,3,257,6,119,257,     259P    354
7,257,8,121,257,9,257,7,123,257,10,257,9,125,257,8,257,10,127,       259P    355
257,7,257,11,129,257,11,257,12,131,257,9,257,12,133,257,13,257,      259P    356
8,135,257,13,257,11,137,257,14,257,15,139,257,16,257,14,141,257,     259P    357
17,257,16,143,257,15,257,17,145,257,18,257,19,147,257,19,257,20,     259P    358
149,257,20,257,21,151,257,21,257,18,153,257,1,257,22,155,257,5,      259P    359
257,22,157,257,23,257,13,159,257,12,257,23,161,257,23,257,10,        259P    360
163,257,6,257,24,165,257,24,257,4,167,257,22,257,24,169,257,25,      259P    361
257,26,171,257,26,257,27,173,257,27,257,28,175,257,28,257,25,        259P    362
177,257,26,257,29,179,257,29,257,30,181,257,30,257,27,183,257,       259P    363
21,257,25,185,257,20,257,29,187,257,19,257,30,189,257,18,257,28,     259P    364
191,257,31,257,32,193,257,32,257,33,195,257,33,257,34,197,257,       259P    365
34,257,31,199,257,14,257,31,201,257,15,257,35,203,257,32,257,35,     259P    366
205,257,16,257,34,207,257,36,257,33,209,257,17,257,36,211,257,       259P    367
35,257,36;                                                           259P    368
406,1,5HBody1;                                                       261P    369
406,1,12HComponent1:1;                                               263P    370
314,62.7450980392157,62.7450980392157,62.7450980392157,13HSteel      265P    371
- Satin;                                                             265P    372
S      1G      3D    266P    372                                        T      1
